<svg width="22" height="20" viewBox="0 0 22 20" fill="none" xmlns="http://www.w3.org/2000/svg">
<path fill-rule="evenodd" clip-rule="evenodd" d="M20.1875 0.8125H1.8125C1.025 0.8125 0.5 1.3375 0.5 2.125V17.875C0.5 18.6625 1.025 19.1875 1.8125 19.1875H20.1875C20.975 19.1875 21.5 18.6625 21.5 17.875V2.125C21.5 1.3375 20.975 0.8125 20.1875 0.8125ZM8.375 4.75C9.1625 4.75 9.6875 5.275 9.6875 6.0625C9.6875 6.85 9.1625 7.375 8.375 7.375C7.5875 7.375 7.0625 6.85 7.0625 6.0625C7.0625 5.275 7.5875 4.75 8.375 4.75ZM5.75 10L3.125 15.25H18.875L13.625 7.375L9.6875 12.625L5.75 10Z" fill="#2A496B"/>
</svg>
